<svg width="40" height="40" viewBox="0 0 40 40" fill="none" xmlns="http://www.w3.org/2000/svg">
<path d="M20.16 0.799988C9.6 0.799988 0.959999 9.43999 0.959999 20C0.959999 30.56 9.6 39.2 20.16 39.2C30.72 39.2 39.36 30.56 39.36 20C39.36 9.43999 30.72 0.799988 20.16 0.799988ZM20.16 3.99999C29.04 3.99999 36.16 11.12 36.16 20C36.16 28.08 30.24 34.64 22.56 35.84V24.64H27.12L27.84 20H22.56V17.44C22.56 15.52 23.2 13.84 24.96 13.84H27.84V9.83999C27.36 9.75999 26.24 9.59999 24.24 9.59999C20 9.59999 17.52 11.84 17.52 16.96V20H13.2V24.64H17.52V35.76C9.92 34.48 4.16 27.92 4.16 20C4.16 11.12 11.28 3.99999 20.16 3.99999Z" fill="#E0FCFF" fill-opacity="0.75"/>
</svg>
