<svg width="40" height="40" viewBox="0 0 40 40" fill="none" xmlns="http://www.w3.org/2000/svg">
<path d="M20 3.86491C25.2552 3.86491 25.8776 3.88499 27.9531 3.97968C29.872 4.06726 30.9141 4.3878 31.6077 4.65734C32.4625 4.97285 33.2358 5.47593 33.8706 6.1296C34.5243 6.76445 35.0274 7.53772 35.3429 8.39257C35.6124 9.08609 35.933 10.1282 36.0205 12.0471C36.1152 14.1225 36.1353 14.7449 36.1353 20.0002C36.1353 25.2555 36.1152 25.8778 36.0205 27.9534C35.933 29.8723 35.6123 30.9143 35.3429 31.6079C35.0155 32.4567 34.514 33.2276 33.8706 33.8709C33.2273 34.5142 32.4565 35.0157 31.6077 35.3431C30.9141 35.6126 29.872 35.9333 27.9531 36.0208C25.8781 36.1155 25.2557 36.1355 20 36.1355C14.7443 36.1355 14.1221 36.1155 12.0469 36.0208C10.128 35.9332 9.08594 35.6126 8.39234 35.3431C7.53749 35.0276 6.76422 34.5245 6.12938 33.8708C5.4757 33.236 4.97262 32.4627 4.65711 31.6079C4.38758 30.9144 4.06695 29.8723 3.97945 27.9534C3.88477 25.878 3.86469 25.2555 3.86469 20.0002C3.86469 14.7449 3.88477 14.1226 3.97945 12.0471C4.06703 10.1282 4.38758 9.08616 4.65711 8.39257C4.97265 7.53768 5.47579 6.76438 6.12953 6.12952C6.76438 5.47585 7.53765 4.97277 8.3925 4.65726C9.08602 4.38773 10.1281 4.0671 12.047 3.9796C14.1224 3.88491 14.7448 3.86484 20.0002 3.86484M20.0002 0.318665C14.655 0.318665 13.9845 0.341321 11.8856 0.437102C9.7907 0.532727 8.36008 0.865383 7.1082 1.35195C5.79497 1.84614 4.60534 2.62084 3.62227 3.62202C2.62085 4.60503 1.84594 5.79467 1.35156 7.10796C0.865391 8.35991 0.532735 9.79054 0.4375 11.8855C0.341328 13.9844 0.318672 14.6548 0.318672 20C0.318672 25.3451 0.341328 26.0156 0.4375 28.1145C0.533125 30.2094 0.865781 31.6401 1.35234 32.8919C1.84654 34.2052 2.62124 35.3948 3.62242 36.3779C4.60549 37.3791 5.79512 38.1538 7.10836 38.648C8.36031 39.1345 9.79094 39.4672 11.8858 39.5628C13.985 39.6586 14.6552 39.6812 20.0003 39.6812C25.3454 39.6812 26.0159 39.6586 28.1148 39.5628C30.2098 39.4672 31.6404 39.1345 32.8923 38.648C34.1997 38.1423 35.387 37.3691 36.3782 36.3779C37.3694 35.3867 38.1426 34.1993 38.6483 32.8919C39.1348 31.64 39.4675 30.2094 39.5631 28.1145C39.6589 26.0153 39.6816 25.3451 39.6816 20C39.6816 14.6549 39.6589 13.9844 39.5631 11.8855C39.4675 9.79054 39.1348 8.35991 38.6483 7.10804C38.1541 5.7948 37.3794 4.60517 36.3782 3.6221C35.3951 2.62071 34.2054 1.84585 32.892 1.35156C31.6401 0.865383 30.2095 0.532727 28.1145 0.437493C26.0156 0.341321 25.3452 0.318665 20 0.318665H20.0002Z" fill="#E0FCFF" fill-opacity="0.75"/>
<path d="M20 9.89337C18.0011 9.89337 16.0471 10.4861 14.3851 11.5966C12.723 12.7072 11.4276 14.2856 10.6627 16.1324C9.89774 17.9791 9.69759 20.0112 10.0876 21.9717C10.4775 23.9322 11.4401 25.733 12.8535 27.1465C14.267 28.5599 16.0678 29.5225 18.0283 29.9125C19.9888 30.3024 22.0209 30.1023 23.8676 29.3373C25.7144 28.5724 27.2928 27.277 28.4034 25.615C29.5139 23.9529 30.1066 21.9989 30.1066 20C30.1066 17.3196 29.0418 14.7489 27.1465 12.8535C25.2511 10.9582 22.6804 9.89337 20 9.89337ZM20 26.5604C18.7025 26.5604 17.4341 26.1756 16.3553 25.4547C15.2764 24.7339 14.4356 23.7093 13.939 22.5105C13.4425 21.3118 13.3126 19.9927 13.5658 18.7201C13.8189 17.4475 14.4437 16.2786 15.3612 15.3611C16.2787 14.4436 17.4477 13.8188 18.7202 13.5657C19.9928 13.3125 21.3119 13.4425 22.5107 13.939C23.7094 14.4356 24.734 15.2764 25.4548 16.3553C26.1757 17.4341 26.5605 18.7025 26.5605 20C26.5604 21.7399 25.8693 23.4086 24.6389 24.6389C23.4086 25.8692 21.7399 26.5604 20 26.5604Z" fill="#E0FCFF" fill-opacity="0.75"/>
<path d="M30.5059 11.8558C31.8103 11.8558 32.8677 10.7984 32.8677 9.49407C32.8677 8.18973 31.8103 7.13235 30.5059 7.13235C29.2016 7.13235 28.1442 8.18973 28.1442 9.49407C28.1442 10.7984 29.2016 11.8558 30.5059 11.8558Z" fill="#E0FCFF" fill-opacity="0.75"/>
</svg>
